<?xml version="1.0" encoding="utf-8"?>
<!-- Generator: Adobe Illustrator 25.0.0, SVG Export Plug-In . SVG Version: 6.00 Build 0)  -->
<svg version="1.1" xmlns="http://www.w3.org/2000/svg" xmlns:xlink="http://www.w3.org/1999/xlink" x="0px" y="0px"
	 viewBox="0 0 50 50" style="enable-background:new 0 0 50 50;" xml:space="preserve">
<style type="text/css">
	.st1{fill:#397c67;}
	.st9{opacity:0;fill:#397c67;}
	.st10{opacity:0.65;fill:#397c67;stroke:#397c67;stroke-miterlimit:10;}
</style>
<g id="Settings">
	<g>
		<path class="st1" d="M47.17,38.39L30.4,21.61c1.51-3.9,1.35-8.22-0.49-12.04C26.28,2.05,17.2-1.13,9.67,2.5
			c-0.5,0.23-0.85,0.7-0.94,1.25c-0.1,0.55,0.09,1.1,0.48,1.49l6.85,6.85c1.09,1.09,1.09,2.88,0,3.96
			c-0.53,0.54-1.24,0.82-1.98,0.82c-0.75,0-1.45-0.28-1.98-0.82L5.25,9.21c-0.4-0.39-0.96-0.58-1.5-0.48
			c-0.54,0.1-1.01,0.45-1.25,0.95c-2.78,5.8-1.6,12.75,2.94,17.31c0.36,0.35,0.73,0.68,1.11,1c0.01,0,0.01,0.01,0.01,0.01
			c0.07,0.07,0.14,0.13,0.21,0.18c0.02,0.02,0.04,0.04,0.06,0.05c4.19,3.25,9.81,4.09,14.78,2.19l16.77,16.78
			c1.18,1.17,2.74,1.82,4.4,1.82c1.66,0,3.22-0.64,4.39-1.82C48.35,46,49,44.44,49,42.78C49,41.12,48.35,39.56,47.17,38.39z
			 M4.74,13.53l4.94,4.95c0.7,0.7,1.54,1.21,2.46,1.5l-4.43,4.43C4.89,21.5,3.83,17.38,4.74,13.53z M44.76,44.76
			c-1.06,1.06-2.91,1.06-3.96,0L23.2,27.17c-0.32-0.32-0.76-0.5-1.2-0.5c-0.25,0-0.51,0.06-0.74,0.17
			c-3.49,1.68-7.54,1.49-10.81-0.32l8.02-8.03c2.43-2.42,2.43-6.37,0-8.8l-4.95-4.95C18.78,3.48,24.4,6,26.84,11.06
			c1.56,3.24,1.56,6.96,0,10.2c-0.31,0.65-0.19,1.44,0.33,1.95L44.76,40.8c0.53,0.54,0.82,1.24,0.82,1.98
			C45.58,43.53,45.29,44.24,44.76,44.76z"/>
		<path class="st9" d="M45.58,42.78c0,0.75-0.29,1.45-0.82,1.98c-1.06,1.06-2.91,1.06-3.96,0L23.2,27.17
			c-0.32-0.32-0.76-0.5-1.2-0.5c-0.25,0-0.51,0.06-0.74,0.17c-3.49,1.68-7.54,1.49-10.81-0.32l8.02-8.03c2.43-2.42,2.43-6.37,0-8.8
			l-4.95-4.95C18.78,3.48,24.4,6,26.84,11.06c1.56,3.24,1.56,6.96,0,10.2c-0.31,0.65-0.19,1.44,0.33,1.95L44.76,40.8
			C45.29,41.34,45.58,42.04,45.58,42.78z"/>
		<path class="st10" d="M12.14,19.99l-4.43,4.43c-2.81-2.92-3.88-7.04-2.97-10.88l4.94,4.95C10.38,19.19,11.22,19.69,12.14,19.99z"
			/>
	</g>
</g>
</svg>
